<?xml version="1.0" encoding="UTF-8" standalone="no"?>
<!DOCTYPE svg PUBLIC "-//W3C//DTD SVG 1.1//EN"
 "http://www.w3.org/Graphics/SVG/1.1/DTD/svg11.dtd">
<!-- Generated by graphviz version 15.1.1 (20260805.0921)
 -->
<!-- Title: wc3_episodes Pages: 1 -->
<svg width="720pt" height="340pt"
 viewBox="0.00 0.00 720.00 340.00" xmlns="http://www.w3.org/2000/svg" xmlns:xlink="http://www.w3.org/1999/xlink">
<g id="graph0" class="graph" transform="scale(0.438223 0.438223) rotate(0) translate(36 740)">
<title>wc3_episodes</title>
<polygon fill="white" stroke="none" points="-36,36 -36,-740 1607,-740 1607,36 -36,36"/>
<text xml:space="preserve" text-anchor="middle" x="785.5" y="-686.7" font-family="Helvetica,sans-Serif" font-size="14.00">WC3 — Episode System (Episodic Memory)</text>
<text xml:space="preserve" text-anchor="middle" x="785.5" y="-671.7" font-family="Helvetica,sans-Serif" font-size="14.00">create → review → feed → harvest → recall → pattern detection</text>
<g id="clust1" class="cluster">
<title>cluster_sources</title>
<polygon fill="#ebf5fb" stroke="#aed6f1" points="8,-567.5 8,-655 735,-655 735,-567.5 8,-567.5"/>
<text xml:space="preserve" text-anchor="middle" x="371.5" y="-642.45" font-family="Helvetica,sans-Serif" font-size="9.00">Episode Sources</text>
</g>
<g id="clust2" class="cluster">
<title>cluster_model</title>
<polygon fill="#fdebd0" stroke="#f0b27a" points="529,-405 529,-533 735,-533 735,-405 529,-405"/>
<text xml:space="preserve" text-anchor="middle" x="632" y="-520.45" font-family="Helvetica,sans-Serif" font-size="9.00">Episode Record (ai_episode)</text>
</g>
<g id="clust3" class="cluster">
<title>cluster_review</title>
<polygon fill="#f5eef8" stroke="#d2b4de" points="743,-117 743,-655 937,-655 937,-117 743,-117"/>
<text xml:space="preserve" text-anchor="middle" x="840" y="-642.45" font-family="Helvetica,sans-Serif" font-size="9.00">Review Gate (Athena + Allie)</text>
</g>
<g id="clust4" class="cluster">
<title>cluster_feed</title>
<polygon fill="#e8f8f5" stroke="#a3e4d7" points="1370,-8 1370,-518.25 1513,-518.25 1513,-8 1370,-8"/>
<text xml:space="preserve" text-anchor="middle" x="1441.5" y="-505.7" font-family="Helvetica,sans-Serif" font-size="9.00">Episode Feed (Cross&#45;Instance)</text>
</g>
<g id="clust5" class="cluster">
<title>cluster_recall</title>
<polygon fill="#fef9e7" stroke="#f9e79f" points="1058,-249.12 1058,-528 1343,-528 1343,-249.12 1058,-249.12"/>
<text xml:space="preserve" text-anchor="middle" x="1200.5" y="-515.45" font-family="Helvetica,sans-Serif" font-size="9.00">Recall &amp; Pattern Detection</text>
</g>
<g id="clust6" class="cluster">
<title>cluster_api</title>
<polygon fill="#f2f3f4" stroke="#bdc3c7" points="945,-567.5 945,-655 1563,-655 1563,-567.5 945,-567.5"/>
<text xml:space="preserve" text-anchor="middle" x="1254" y="-642.45" font-family="Helvetica,sans-Serif" font-size="9.00">API Endpoints</text>
</g>
<g id="clust7" class="cluster">
<title>cluster_summary</title>
<polygon fill="#fdfefe" stroke="#d5d8dc" points="573,-224.75 573,-362.25 735,-362.25 735,-224.75 573,-224.75"/>
<text xml:space="preserve" text-anchor="middle" x="654" y="-349.7" font-family="Helvetica,sans-Serif" font-size="9.00">Episode Summary (Admin Console)</text>
</g>
<!-- tfts -->
<g id="node1" class="node">
<title>tfts</title>
<polygon fill="#d6eaf8" stroke="black" points="346.5,-611.5 249.5,-611.5 249.5,-575.5 346.5,-575.5 346.5,-611.5"/>
<text xml:space="preserve" text-anchor="middle" x="298" y="-594.7" font-family="Helvetica,sans-Serif" font-size="9.00">TFTS Arc</text>
<text xml:space="preserve" text-anchor="middle" x="298" y="-584.95" font-family="Helvetica,sans-Serif" font-size="9.00">(try&#45;fail&#45;try&#45;succeed)</text>
</g>
<!-- episode -->
<g id="node7" class="node">
<title>episode</title>
<polygon fill="#fae5d3" stroke="black" points="726.62,-489.5 537.38,-489.5 537.38,-413 726.62,-413 726.62,-489.5"/>
<text xml:space="preserve" text-anchor="middle" x="632" y="-476.95" font-family="Helvetica,sans-Serif" font-size="9.00">Episode (ai_episode)</text>
<text xml:space="preserve" text-anchor="middle" x="632" y="-457.2" font-family="Helvetica,sans-Serif" font-size="9.00">episode_id: EP&#45;{hash}</text>
<text xml:space="preserve" text-anchor="middle" x="632" y="-447.45" font-family="Helvetica,sans-Serif" font-size="9.00">episode_type | domain | severity | outcome</text>
<text xml:space="preserve" text-anchor="middle" x="632" y="-437.7" font-family="Helvetica,sans-Serif" font-size="9.00">title | narrative | principle</text>
<text xml:space="preserve" text-anchor="middle" x="632" y="-427.95" font-family="Helvetica,sans-Serif" font-size="9.00">actors | tags | source_ref</text>
<text xml:space="preserve" text-anchor="middle" x="632" y="-418.2" font-family="Helvetica,sans-Serif" font-size="9.00">recall_count | quality_score (&#45;1 to 1)</text>
</g>
<!-- tfts&#45;&gt;episode -->
<g id="edge1" class="edge">
<title>tfts&#45;&gt;episode</title>
<path fill="none" stroke="black" d="M338.22,-575.09C344.18,-572.53 350.25,-569.94 356,-567.5 413.69,-543.02 478.33,-516.01 530.54,-494.29"/>
<polygon fill="black" stroke="black" points="531.86,-497.53 539.75,-490.46 529.17,-491.07 531.86,-497.53"/>
</g>
<!-- fault -->
<g id="node2" class="node">
<title>fault</title>
<polygon fill="#d6eaf8" stroke="black" points="477,-611.5 365,-611.5 365,-575.5 477,-575.5 477,-611.5"/>
<text xml:space="preserve" text-anchor="middle" x="421" y="-594.7" font-family="Helvetica,sans-Serif" font-size="9.00">System Fault</text>
<text xml:space="preserve" text-anchor="middle" x="421" y="-584.95" font-family="Helvetica,sans-Serif" font-size="9.00">(Noelle / Alice / Athena)</text>
</g>
<!-- fault&#45;&gt;episode -->
<g id="edge2" class="edge">
<title>fault&#45;&gt;episode</title>
<path fill="none" stroke="black" d="M447.3,-575.02C476.85,-555.37 525.96,-522.74 566.11,-496.05"/>
<polygon fill="black" stroke="black" points="567.92,-499.04 574.32,-490.59 564.05,-493.21 567.92,-499.04"/>
</g>
<!-- scar -->
<g id="node3" class="node">
<title>scar</title>
<polygon fill="#d6eaf8" stroke="black" points="602.75,-611.5 495.25,-611.5 495.25,-575.5 602.75,-575.5 602.75,-611.5"/>
<text xml:space="preserve" text-anchor="middle" x="549" y="-594.7" font-family="Helvetica,sans-Serif" font-size="9.00">Scar</text>
<text xml:space="preserve" text-anchor="middle" x="549" y="-584.95" font-family="Helvetica,sans-Serif" font-size="9.00">(cost time/money/trust)</text>
</g>
<!-- scar&#45;&gt;episode -->
<g id="edge3" class="edge">
<title>scar&#45;&gt;episode</title>
<path fill="none" stroke="black" d="M559.34,-575.02C570.48,-556.2 588.67,-525.47 604.06,-499.46"/>
<polygon fill="black" stroke="black" points="606.95,-501.45 609.03,-491.06 600.93,-497.88 606.95,-501.45"/>
</g>
<!-- commerce -->
<g id="node4" class="node">
<title>commerce</title>
<polygon fill="#d6eaf8" stroke="black" points="727,-611.5 621,-611.5 621,-575.5 727,-575.5 727,-611.5"/>
<text xml:space="preserve" text-anchor="middle" x="674" y="-594.7" font-family="Helvetica,sans-Serif" font-size="9.00">Commerce Event</text>
<text xml:space="preserve" text-anchor="middle" x="674" y="-584.95" font-family="Helvetica,sans-Serif" font-size="9.00">(pricing anomaly, etc.)</text>
</g>
<!-- commerce&#45;&gt;episode -->
<g id="edge4" class="edge">
<title>commerce&#45;&gt;episode</title>
<path fill="none" stroke="black" d="M668.77,-575.02C663.2,-556.45 654.17,-526.28 646.45,-500.49"/>
<polygon fill="black" stroke="black" points="649.89,-499.78 643.67,-491.2 643.18,-501.79 649.89,-499.78"/>
</g>
<!-- session -->
<g id="node5" class="node">
<title>session</title>
<polygon fill="#d6eaf8" stroke="black" points="117.75,-611.5 16.25,-611.5 16.25,-575.5 117.75,-575.5 117.75,-611.5"/>
<text xml:space="preserve" text-anchor="middle" x="67" y="-594.7" font-family="Helvetica,sans-Serif" font-size="9.00">Session Summary</text>
<text xml:space="preserve" text-anchor="middle" x="67" y="-584.95" font-family="Helvetica,sans-Serif" font-size="9.00">(Claude Code / Allie)</text>
</g>
<!-- session&#45;&gt;episode -->
<g id="edge5" class="edge">
<title>session&#45;&gt;episode</title>
<path fill="none" stroke="black" d="M106.02,-575.12C112.93,-572.36 120.12,-569.7 127,-567.5 262.33,-524.21 422.96,-490.46 526.13,-470.96"/>
<polygon fill="black" stroke="black" points="526.5,-474.45 535.68,-469.16 525.21,-467.57 526.5,-474.45"/>
</g>
<!-- pattern_src -->
<g id="node6" class="node">
<title>pattern_src</title>
<polygon fill="#d6eaf8" stroke="black" points="231.75,-611.5 136.25,-611.5 136.25,-575.5 231.75,-575.5 231.75,-611.5"/>
<text xml:space="preserve" text-anchor="middle" x="184" y="-594.7" font-family="Helvetica,sans-Serif" font-size="9.00">Pattern Detection</text>
<text xml:space="preserve" text-anchor="middle" x="184" y="-584.95" font-family="Helvetica,sans-Serif" font-size="9.00">(Alice auto&#45;creates)</text>
</g>
<!-- pattern_src&#45;&gt;episode -->
<g id="edge6" class="edge">
<title>pattern_src&#45;&gt;episode</title>
<path fill="none" stroke="black" d="M222.06,-575.02C228.33,-572.36 234.81,-569.76 241,-567.5 335.92,-532.85 446.59,-501 525.92,-479.61"/>
<polygon fill="black" stroke="black" points="526.68,-483.02 535.43,-477.05 524.87,-476.26 526.68,-483.02"/>
</g>
<!-- raw -->
<g id="node8" class="node">
<title>raw</title>
<polygon fill="#ebdef0" stroke="black" points="828.25,-611.5 753.75,-611.5 753.75,-575.5 828.25,-575.5 828.25,-611.5"/>
<text xml:space="preserve" text-anchor="middle" x="791" y="-594.7" font-family="Helvetica,sans-Serif" font-size="9.00">raw</text>
<text xml:space="preserve" text-anchor="middle" x="791" y="-584.95" font-family="Helvetica,sans-Serif" font-size="9.00">(not reviewed)</text>
</g>
<!-- episode&#45;&gt;raw -->
<g id="edge7" class="edge">
<title>episode&#45;&gt;raw</title>
<path fill="none" stroke="black" d="M674.52,-489.75C702.45,-514.39 738.22,-545.95 762.71,-567.54"/>
<polygon fill="black" stroke="black" points="760.23,-570.03 770.05,-574.02 764.86,-564.78 760.23,-570.03"/>
<text xml:space="preserve" text-anchor="middle" x="759.98" y="-546.73" font-family="Helvetica,sans-Serif" font-size="7.00">created</text>
</g>
<!-- recall -->
<g id="node17" class="node">
<title>recall</title>
<polygon fill="#fcf3cf" stroke="black" points="1183.62,-474.75 1066.38,-474.75 1066.38,-427.75 1183.62,-427.75 1183.62,-474.75"/>
<text xml:space="preserve" text-anchor="middle" x="1125" y="-462.2" font-family="Helvetica,sans-Serif" font-size="9.00">Episode Recall</text>
<text xml:space="preserve" text-anchor="middle" x="1125" y="-452.45" font-family="Helvetica,sans-Serif" font-size="9.00">(vector similarity search)</text>
<text xml:space="preserve" text-anchor="middle" x="1125" y="-442.7" font-family="Helvetica,sans-Serif" font-size="9.00">recall_count++</text>
<text xml:space="preserve" text-anchor="middle" x="1125" y="-432.95" font-family="Helvetica,sans-Serif" font-size="9.00">dt_last_recalled updated</text>
</g>
<!-- episode&#45;&gt;recall -->
<g id="edge18" class="edge">
<title>episode&#45;&gt;recall</title>
<path fill="none" stroke="black" d="M669.99,-489.97C688.97,-506.6 713.35,-524.21 739,-533 803.93,-555.26 985.03,-562.86 1047.88,-535.25 1071.49,-524.87 1091.04,-503.3 1104.56,-484.62"/>
<polygon fill="black" stroke="black" points="1107.41,-486.65 1110.2,-476.43 1101.64,-482.68 1107.41,-486.65"/>
<text xml:space="preserve" text-anchor="middle" x="1034" y="-550.85" font-family="Helvetica,sans-Serif" font-size="7.00">similarity</text>
<text xml:space="preserve" text-anchor="middle" x="1034" y="-542.6" font-family="Helvetica,sans-Serif" font-size="7.00">query</text>
</g>
<!-- stats -->
<g id="node26" class="node">
<title>stats</title>
<polygon fill="#f2f4f4" stroke="black" points="716.5,-318.75 583.5,-318.75 583.5,-232.75 716.5,-232.75 716.5,-318.75"/>
<text xml:space="preserve" text-anchor="middle" x="650" y="-306.2" font-family="Helvetica,sans-Serif" font-size="9.00">get_episode_summary()</text>
<text xml:space="preserve" text-anchor="middle" x="650" y="-296.45" font-family="Helvetica,sans-Serif" font-size="9.00">─────────────</text>
<text xml:space="preserve" text-anchor="middle" x="650" y="-286.7" font-family="Helvetica,sans-Serif" font-size="9.00">total / by_type / by_severity</text>
<text xml:space="preserve" text-anchor="middle" x="650" y="-276.95" font-family="Helvetica,sans-Serif" font-size="9.00">new: local vs harvested</text>
<text xml:space="preserve" text-anchor="middle" x="650" y="-267.2" font-family="Helvetica,sans-Serif" font-size="9.00">pending_review count</text>
<text xml:space="preserve" text-anchor="middle" x="650" y="-257.45" font-family="Helvetica,sans-Serif" font-size="9.00">top domains this period</text>
<text xml:space="preserve" text-anchor="middle" x="650" y="-247.7" font-family="Helvetica,sans-Serif" font-size="9.00">recent patterns</text>
<text xml:space="preserve" text-anchor="middle" x="650" y="-237.95" font-family="Helvetica,sans-Serif" font-size="9.00">most recalled episodes</text>
</g>
<!-- episode&#45;&gt;stats -->
<g id="edge28" class="edge">
<title>episode&#45;&gt;stats</title>
<path fill="none" stroke="black" stroke-dasharray="5,2" d="M635.91,-412.6C638.39,-388.64 641.65,-357.23 644.41,-330.64"/>
<polygon fill="black" stroke="black" points="647.89,-331.01 645.44,-320.71 640.93,-330.29 647.89,-331.01"/>
</g>
<!-- pending -->
<g id="node9" class="node">
<title>pending</title>
<polygon fill="#ebdef0" stroke="black" points="880.88,-469.25 795.12,-469.25 795.12,-433.25 880.88,-433.25 880.88,-469.25"/>
<text xml:space="preserve" text-anchor="middle" x="838" y="-452.45" font-family="Helvetica,sans-Serif" font-size="9.00">pending</text>
<text xml:space="preserve" text-anchor="middle" x="838" y="-442.7" font-family="Helvetica,sans-Serif" font-size="9.00">(awaiting review)</text>
</g>
<!-- raw&#45;&gt;pending -->
<g id="edge8" class="edge">
<title>raw&#45;&gt;pending</title>
<path fill="none" stroke="black" d="M796.86,-575.02C804.82,-551.27 819.14,-508.53 828.61,-480.28"/>
<polygon fill="black" stroke="black" points="831.88,-481.54 831.74,-470.94 825.24,-479.31 831.88,-481.54"/>
<text xml:space="preserve" text-anchor="middle" x="818.79" y="-546.73" font-family="Helvetica,sans-Serif" font-size="7.00">queued</text>
</g>
<!-- approved -->
<g id="node10" class="node">
<title>approved</title>
<polygon fill="#d5f5e3" stroke="#82e0aa" points="818.88,-293.75 751.12,-293.75 751.12,-257.75 818.88,-257.75 818.88,-293.75"/>
<text xml:space="preserve" text-anchor="middle" x="785" y="-276.95" font-family="Helvetica,sans-Serif" font-size="9.00">approved</text>
<text xml:space="preserve" text-anchor="middle" x="785" y="-267.2" font-family="Helvetica,sans-Serif" font-size="9.00">(enters feed)</text>
</g>
<!-- pending&#45;&gt;approved -->
<g id="edge9" class="edge">
<title>pending&#45;&gt;approved</title>
<path fill="none" stroke="black" d="M828.93,-433.22C823.5,-422.49 816.79,-408.21 812.25,-395 801.93,-365.01 794.32,-329.39 789.81,-305.14"/>
<polygon fill="black" stroke="black" points="793.27,-304.62 788.05,-295.39 786.38,-305.86 793.27,-304.62"/>
<text xml:space="preserve" text-anchor="middle" x="830.62" y="-384.23" font-family="Helvetica,sans-Serif" font-size="7.00">Athena/Allie</text>
<text xml:space="preserve" text-anchor="middle" x="830.62" y="-375.98" font-family="Helvetica,sans-Serif" font-size="7.00">approve</text>
</g>
<!-- rejected -->
<g id="node11" class="node">
<title>rejected</title>
<polygon fill="#fadbd8" stroke="#f1948a" points="929.25,-293.75 836.75,-293.75 836.75,-257.75 929.25,-257.75 929.25,-293.75"/>
<text xml:space="preserve" text-anchor="middle" x="883" y="-276.95" font-family="Helvetica,sans-Serif" font-size="9.00">rejected</text>
<text xml:space="preserve" text-anchor="middle" x="883" y="-267.2" font-family="Helvetica,sans-Serif" font-size="9.00">(foolish or harmful)</text>
</g>
<!-- pending&#45;&gt;rejected -->
<g id="edge10" class="edge">
<title>pending&#45;&gt;rejected</title>
<path fill="none" stroke="black" d="M842.48,-432.98C850.24,-403.05 866.27,-341.27 875.67,-305.01"/>
<polygon fill="black" stroke="black" points="878.97,-306.23 878.09,-295.67 872.19,-304.47 878.97,-306.23"/>
<text xml:space="preserve" text-anchor="middle" x="869.43" y="-384.23" font-family="Helvetica,sans-Serif" font-size="7.00">foolish/</text>
<text xml:space="preserve" text-anchor="middle" x="869.43" y="-375.98" font-family="Helvetica,sans-Serif" font-size="7.00">harmful</text>
</g>
<!-- archived -->
<g id="node12" class="node">
<title>archived</title>
<polygon fill="#e5e8e8" stroke="black" points="843.25,-161 750.75,-161 750.75,-125 843.25,-125 843.25,-161"/>
<text xml:space="preserve" text-anchor="middle" x="797" y="-144.2" font-family="Helvetica,sans-Serif" font-size="9.00">archived</text>
<text xml:space="preserve" text-anchor="middle" x="797" y="-134.45" font-family="Helvetica,sans-Serif" font-size="9.00">(superseded/stale)</text>
</g>
<!-- approved&#45;&gt;archived -->
<g id="edge11" class="edge">
<title>approved&#45;&gt;archived</title>
<path fill="none" stroke="black" d="M786.59,-257.39C788.57,-235.8 791.99,-198.64 794.36,-172.77"/>
<polygon fill="black" stroke="black" points="797.83,-173.22 795.26,-162.94 790.86,-172.58 797.83,-173.22"/>
<text xml:space="preserve" text-anchor="middle" x="809.72" y="-203.97" font-family="Helvetica,sans-Serif" font-size="7.00">superseded</text>
</g>
<!-- scrub -->
<g id="node25" class="node">
<title>scrub</title>
<polygon fill="#fadbd8" stroke="#e74c3c" points="1174,-180.25 1095,-143 1174,-105.75 1253,-143 1174,-180.25"/>
<text xml:space="preserve" text-anchor="middle" x="1174" y="-149.07" font-family="Helvetica,sans-Serif" font-size="9.00">PII Scrub</text>
<text xml:space="preserve" text-anchor="middle" x="1174" y="-139.32" font-family="Helvetica,sans-Serif" font-size="9.00">(actors stripped</text>
<text xml:space="preserve" text-anchor="middle" x="1174" y="-129.57" font-family="Helvetica,sans-Serif" font-size="9.00">before export)</text>
</g>
<!-- approved&#45;&gt;scrub -->
<g id="edge12" class="edge">
<title>approved&#45;&gt;scrub</title>
<path fill="none" stroke="black" d="M795.71,-257.41C803.38,-246.43 814.68,-232.82 828,-224.75 873.92,-196.91 1017.44,-169.59 1104.55,-154.96"/>
<polygon fill="black" stroke="black" points="1104.88,-158.45 1114.17,-153.35 1103.73,-151.54 1104.88,-158.45"/>
<text xml:space="preserve" text-anchor="middle" x="907.73" y="-203.97" font-family="Helvetica,sans-Serif" font-size="7.00">export</text>
</g>
<!-- pattern_detect -->
<g id="node18" class="node">
<title>pattern_detect</title>
<polygon fill="#fcf3cf" stroke="black" points="1334.5,-484.5 1201.5,-484.5 1201.5,-418 1334.5,-418 1334.5,-484.5"/>
<text xml:space="preserve" text-anchor="middle" x="1268" y="-471.95" font-family="Helvetica,sans-Serif" font-size="9.00">detect_rejected_patterns()</text>
<text xml:space="preserve" text-anchor="middle" x="1268" y="-462.2" font-family="Helvetica,sans-Serif" font-size="9.00">─────────────</text>
<text xml:space="preserve" text-anchor="middle" x="1268" y="-452.45" font-family="Helvetica,sans-Serif" font-size="9.00">cluster rejected episodes</text>
<text xml:space="preserve" text-anchor="middle" x="1268" y="-442.7" font-family="Helvetica,sans-Serif" font-size="9.00">by text similarity</text>
<text xml:space="preserve" text-anchor="middle" x="1268" y="-432.95" font-family="Helvetica,sans-Serif" font-size="9.00">threshold: 3+ episodes</text>
<text xml:space="preserve" text-anchor="middle" x="1268" y="-423.2" font-family="Helvetica,sans-Serif" font-size="9.00">similarity: 0.4+</text>
</g>
<!-- rejected&#45;&gt;pattern_detect -->
<g id="edge20" class="edge">
<title>rejected&#45;&gt;pattern_detect</title>
<path fill="none" stroke="black" d="M914.14,-294.2C947.89,-312.67 1003.69,-341.9 1054,-362.25 1098.92,-380.42 1111.59,-381.06 1158,-395 1173.49,-399.65 1178.17,-398.54 1193,-405 1198.1,-407.22 1203.27,-409.73 1208.39,-412.4"/>
<polygon fill="black" stroke="black" points="1206.35,-415.27 1216.81,-416.97 1209.7,-409.12 1206.35,-415.27"/>
<text xml:space="preserve" text-anchor="middle" x="1176" y="-388.35" font-family="Helvetica,sans-Serif" font-size="7.00">rejected</text>
<text xml:space="preserve" text-anchor="middle" x="1176" y="-380.1" font-family="Helvetica,sans-Serif" font-size="7.00">episodes</text>
<text xml:space="preserve" text-anchor="middle" x="1176" y="-371.85" font-family="Helvetica,sans-Serif" font-size="7.00">accumulate</text>
</g>
<!-- local_feed -->
<g id="node13" class="node">
<title>local_feed</title>
<polygon fill="#d1f2eb" stroke="black" points="1498.12,-474.75 1383.88,-474.75 1383.88,-427.75 1498.12,-427.75 1498.12,-474.75"/>
<text xml:space="preserve" text-anchor="middle" x="1441" y="-462.2" font-family="Helvetica,sans-Serif" font-size="9.00">Local Feed</text>
<text xml:space="preserve" text-anchor="middle" x="1441" y="-452.45" font-family="Helvetica,sans-Serif" font-size="9.00">/wcapi/ai/episodes/feed/</text>
<text xml:space="preserve" text-anchor="middle" x="1441" y="-442.7" font-family="Helvetica,sans-Serif" font-size="9.00">(serve this instance&#39;s</text>
<text xml:space="preserve" text-anchor="middle" x="1441" y="-432.95" font-family="Helvetica,sans-Serif" font-size="9.00">approved episodes)</text>
</g>
<!-- wchq_harvest -->
<g id="node14" class="node">
<title>wchq_harvest</title>
<polygon fill="#d1f2eb" stroke="black" points="1492.5,-294.38 1389.5,-294.38 1389.5,-257.12 1492.5,-257.12 1492.5,-294.38"/>
<text xml:space="preserve" text-anchor="middle" x="1441" y="-281.82" font-family="Helvetica,sans-Serif" font-size="9.00">WCHQ Harvest</text>
<text xml:space="preserve" text-anchor="middle" x="1441" y="-272.07" font-family="Helvetica,sans-Serif" font-size="9.00">(pulls from all</text>
<text xml:space="preserve" text-anchor="middle" x="1441" y="-262.32" font-family="Helvetica,sans-Serif" font-size="9.00">connected instances)</text>
</g>
<!-- local_feed&#45;&gt;wchq_harvest -->
<g id="edge14" class="edge">
<title>local_feed&#45;&gt;wchq_harvest</title>
<path fill="none" stroke="black" d="M1441,-427.57C1441,-396.34 1441,-340.1 1441,-305.83"/>
<polygon fill="black" stroke="black" points="1444.5,-306.21 1441,-296.21 1437.5,-306.21 1444.5,-306.21"/>
<text xml:space="preserve" text-anchor="middle" x="1460.5" y="-380.1" font-family="Helvetica,sans-Serif" font-size="7.00">WCHQ pulls</text>
</g>
<!-- wchq_feed -->
<g id="node15" class="node">
<title>wchq_feed</title>
<polygon fill="#d1f2eb" stroke="black" points="1468.75,-161.62 1379.25,-161.62 1379.25,-124.38 1468.75,-124.38 1468.75,-161.62"/>
<text xml:space="preserve" text-anchor="middle" x="1424" y="-149.07" font-family="Helvetica,sans-Serif" font-size="9.00">WCHQ Feed</text>
<text xml:space="preserve" text-anchor="middle" x="1424" y="-139.32" font-family="Helvetica,sans-Serif" font-size="9.00">(curated episodes</text>
<text xml:space="preserve" text-anchor="middle" x="1424" y="-129.57" font-family="Helvetica,sans-Serif" font-size="9.00">available to all)</text>
</g>
<!-- wchq_harvest&#45;&gt;wchq_feed -->
<g id="edge15" class="edge">
<title>wchq_harvest&#45;&gt;wchq_feed</title>
<path fill="none" stroke="black" d="M1438.67,-256.84C1435.88,-235.35 1431.15,-199 1427.82,-173.38"/>
<polygon fill="black" stroke="black" points="1431.31,-173.08 1426.55,-163.61 1424.37,-173.98 1431.31,-173.08"/>
<text xml:space="preserve" text-anchor="middle" x="1450.26" y="-208.1" font-family="Helvetica,sans-Serif" font-size="7.00">reviewed &amp;</text>
<text xml:space="preserve" text-anchor="middle" x="1450.26" y="-199.85" font-family="Helvetica,sans-Serif" font-size="7.00">curated</text>
</g>
<!-- ingest -->
<g id="node16" class="node">
<title>ingest</title>
<polygon fill="#d1f2eb" stroke="black" points="1464.5,-53.25 1379.5,-53.25 1379.5,-16 1464.5,-16 1464.5,-53.25"/>
<text xml:space="preserve" text-anchor="middle" x="1422" y="-40.7" font-family="Helvetica,sans-Serif" font-size="9.00">Ingest</text>
<text xml:space="preserve" text-anchor="middle" x="1422" y="-30.95" font-family="Helvetica,sans-Serif" font-size="9.00">(upsert incoming</text>
<text xml:space="preserve" text-anchor="middle" x="1422" y="-21.2" font-family="Helvetica,sans-Serif" font-size="9.00">episodes locally)</text>
</g>
<!-- wchq_feed&#45;&gt;ingest -->
<g id="edge16" class="edge">
<title>wchq_feed&#45;&gt;ingest</title>
<path fill="none" stroke="black" d="M1423.66,-123.95C1423.36,-107.73 1422.9,-83.62 1422.55,-64.69"/>
<polygon fill="black" stroke="black" points="1426.05,-64.85 1422.36,-54.92 1419.05,-64.98 1426.05,-64.85"/>
<text xml:space="preserve" text-anchor="middle" x="1446.94" y="-81.1" font-family="Helvetica,sans-Serif" font-size="7.00">other instances</text>
<text xml:space="preserve" text-anchor="middle" x="1446.94" y="-72.85" font-family="Helvetica,sans-Serif" font-size="7.00">poll &amp; ingest</text>
</g>
<!-- ingest&#45;&gt;episode -->
<g id="edge17" class="edge">
<title>ingest&#45;&gt;episode</title>
<path fill="none" stroke="black" stroke-dasharray="5,2" d="M1379.36,-37.2C1249.02,-42.45 857.55,-61.6 739,-105.75 652.57,-137.94 611.59,-142.95 569,-224.75 540.78,-278.95 550.32,-304.06 569,-362.25 573.71,-376.93 581.88,-391.25 590.8,-403.92"/>
<polygon fill="black" stroke="black" points="587.74,-405.66 596.5,-411.62 593.37,-401.5 587.74,-405.66"/>
<text xml:space="preserve" text-anchor="middle" x="617.88" y="-208.1" font-family="Helvetica,sans-Serif" font-size="7.00">upsert</text>
<text xml:space="preserve" text-anchor="middle" x="617.88" y="-199.85" font-family="Helvetica,sans-Serif" font-size="7.00">(dedup by episode_id)</text>
</g>
<!-- recall&#45;&gt;episode -->
<g id="edge19" class="edge">
<title>recall&#45;&gt;episode</title>
<path fill="none" stroke="black" stroke-dasharray="5,2" d="M1083.51,-475.14C1047.25,-494.56 992.49,-520.43 941,-531.12 853.1,-549.38 824.2,-559.42 739,-531.12 717.46,-523.97 696.74,-510.6 679.36,-496.82"/>
<polygon fill="black" stroke="black" points="681.71,-494.22 671.77,-490.57 677.26,-499.62 681.71,-494.22"/>
<text xml:space="preserve" text-anchor="middle" x="993" y="-546.73" font-family="Helvetica,sans-Serif" font-size="7.00">recall_count++</text>
</g>
<!-- pattern_episode -->
<g id="node19" class="node">
<title>pattern_episode</title>
<polygon fill="#d5f5e3" stroke="#82e0aa" points="1182.25,-294.38 1065.75,-294.38 1065.75,-257.12 1182.25,-257.12 1182.25,-294.38"/>
<text xml:space="preserve" text-anchor="middle" x="1124" y="-281.82" font-family="Helvetica,sans-Serif" font-size="9.00">Pattern Episode Created</text>
<text xml:space="preserve" text-anchor="middle" x="1124" y="-272.07" font-family="Helvetica,sans-Serif" font-size="9.00">(approved, enters feed)</text>
<text xml:space="preserve" text-anchor="middle" x="1124" y="-262.32" font-family="Helvetica,sans-Serif" font-size="9.00">&#39;this keeps happening...&#39;</text>
</g>
<!-- pattern_detect&#45;&gt;pattern_episode -->
<g id="edge21" class="edge">
<title>pattern_detect&#45;&gt;pattern_episode</title>
<path fill="none" stroke="black" d="M1236.92,-417.64C1230.16,-410.3 1223.12,-402.46 1216.75,-395 1190.73,-364.51 1162.54,-328.04 1144.16,-303.74"/>
<polygon fill="black" stroke="black" points="1147.11,-301.83 1138.29,-295.95 1141.52,-306.05 1147.11,-301.83"/>
<text xml:space="preserve" text-anchor="middle" x="1240.38" y="-384.23" font-family="Helvetica,sans-Serif" font-size="7.00">cluster ≥ 3</text>
<text xml:space="preserve" text-anchor="middle" x="1240.38" y="-375.98" font-family="Helvetica,sans-Serif" font-size="7.00">similar rejected</text>
</g>
<!-- observation -->
<g id="node20" class="node">
<title>observation</title>
<polygon fill="#fcf3cf" stroke="black" points="1312,-294.38 1224,-294.38 1224,-257.12 1312,-257.12 1312,-294.38"/>
<text xml:space="preserve" text-anchor="middle" x="1268" y="-281.82" font-family="Helvetica,sans-Serif" font-size="9.00">AliceObservation</text>
<text xml:space="preserve" text-anchor="middle" x="1268" y="-272.07" font-family="Helvetica,sans-Serif" font-size="9.00">(notifies admin)</text>
<text xml:space="preserve" text-anchor="middle" x="1268" y="-262.32" font-family="Helvetica,sans-Serif" font-size="9.00">category=&#39;pattern&#39;</text>
</g>
<!-- pattern_detect&#45;&gt;observation -->
<g id="edge23" class="edge">
<title>pattern_detect&#45;&gt;observation</title>
<path fill="none" stroke="black" d="M1268,-417.62C1268,-385.55 1268,-337.07 1268,-306.16"/>
<polygon fill="black" stroke="black" points="1271.5,-306.38 1268,-296.38 1264.5,-306.38 1271.5,-306.38"/>
<text xml:space="preserve" text-anchor="middle" x="1287.12" y="-380.1" font-family="Helvetica,sans-Serif" font-size="7.00">notify admin</text>
</g>
<!-- pattern_episode&#45;&gt;approved -->
<g id="edge22" class="edge">
<title>pattern_episode&#45;&gt;approved</title>
<path fill="none" stroke="black" d="M1105.09,-294.86C1082.44,-316.26 1042.26,-349.67 1000.12,-363.02 963.66,-374.58 860.45,-382.49 828,-362.25 808.02,-349.78 797.02,-324.96 791.16,-305.1"/>
<polygon fill="black" stroke="black" points="794.58,-304.35 788.66,-295.56 787.81,-306.13 794.58,-304.35"/>
<text xml:space="preserve" text-anchor="middle" x="978" y="-380.1" font-family="Helvetica,sans-Serif" font-size="7.00">auto&#45;approved</text>
</g>
<!-- ep_feed -->
<g id="node21" class="node">
<title>ep_feed</title>
<polygon fill="#e5e8e8" stroke="black" points="1555.12,-611.5 1440.88,-611.5 1440.88,-575.5 1555.12,-575.5 1555.12,-611.5"/>
<text xml:space="preserve" text-anchor="middle" x="1498" y="-589.83" font-family="Helvetica,sans-Serif" font-size="9.00">/wcapi/ai/episodes/feed/</text>
</g>
<!-- ep_feed&#45;&gt;local_feed -->
<g id="edge24" class="edge">
<title>ep_feed&#45;&gt;local_feed</title>
<path fill="none" stroke="black" stroke-dasharray="5,2" d="M1490.9,-575.02C1480.63,-549.76 1461.64,-503.02 1450.27,-475.07"/>
</g>
<!-- ep_review -->
<g id="node22" class="node">
<title>ep_review</title>
<polygon fill="#e5e8e8" stroke="black" points="1247.38,-611.5 1104.62,-611.5 1104.62,-575.5 1247.38,-575.5 1247.38,-611.5"/>
<text xml:space="preserve" text-anchor="middle" x="1176" y="-594.7" font-family="Helvetica,sans-Serif" font-size="9.00">/wcapi/ai/episodes/review/</text>
<text xml:space="preserve" text-anchor="middle" x="1176" y="-584.95" font-family="Helvetica,sans-Serif" font-size="9.00">/wcapi/ai/episodes/review/bulk/</text>
</g>
<!-- ep_review&#45;&gt;pending -->
<g id="edge25" class="edge">
<title>ep_review&#45;&gt;pending</title>
<path fill="none" stroke="black" stroke-dasharray="5,2" d="M1134.1,-575.09C1110.07,-565.11 1079.34,-552.35 1052,-541 992.19,-516.18 922.97,-487.47 879.83,-469.59"/>
</g>
<!-- ep_summary -->
<g id="node23" class="node">
<title>ep_summary</title>
<polygon fill="#e5e8e8" stroke="black" points="1086.88,-611.5 953.12,-611.5 953.12,-575.5 1086.88,-575.5 1086.88,-611.5"/>
<text xml:space="preserve" text-anchor="middle" x="1020" y="-589.83" font-family="Helvetica,sans-Serif" font-size="9.00">/wcapi/ai/episodes/summary/</text>
</g>
<!-- ep_summary&#45;&gt;episode -->
<g id="edge26" class="edge">
<title>ep_summary&#45;&gt;episode</title>
<path fill="none" stroke="black" stroke-dasharray="5,2" d="M994.82,-575.12C974.02,-560.93 946.97,-542.9 941,-541 898.2,-527.35 781.31,-548.11 739,-533 713.36,-523.84 688.8,-506.19 669.7,-489.72"/>
</g>
<!-- ep_patterns -->
<g id="node24" class="node">
<title>ep_patterns</title>
<polygon fill="#e5e8e8" stroke="black" points="1422.5,-611.5 1265.5,-611.5 1265.5,-575.5 1422.5,-575.5 1422.5,-611.5"/>
<text xml:space="preserve" text-anchor="middle" x="1344" y="-589.83" font-family="Helvetica,sans-Serif" font-size="9.00">/wcapi/ai/episodes/detect&#45;patterns/</text>
</g>
<!-- ep_patterns&#45;&gt;pattern_detect -->
<g id="edge27" class="edge">
<title>ep_patterns&#45;&gt;pattern_detect</title>
<path fill="none" stroke="black" stroke-dasharray="5,2" d="M1334.53,-575.02C1322.35,-552.55 1300.97,-513.09 1285.73,-484.97"/>
</g>
<!-- scrub&#45;&gt;local_feed -->
<g id="edge13" class="edge">
<title>scrub&#45;&gt;local_feed</title>
<path fill="none" stroke="black" d="M1226.96,-155.68C1265.73,-166.94 1316.68,-187.89 1347,-224.75 1386.99,-273.37 1355.31,-304.78 1381,-362.25 1389.9,-382.15 1403.32,-402.38 1415.21,-418.42"/>
<polygon fill="black" stroke="black" points="1412.24,-420.29 1421.08,-426.13 1417.82,-416.05 1412.24,-420.29"/>
</g>
</g>
</svg>
