<?xml version="1.0" encoding="UTF-8" standalone="no"?>
<!DOCTYPE svg PUBLIC "-//W3C//DTD SVG 1.1//EN"
 "http://www.w3.org/Graphics/SVG/1.1/DTD/svg11.dtd">
<!-- Generated by graphviz version 15.1.1 (20260805.0921)
 -->
<!-- Title: wc3_print Pages: 1 -->
<svg width="1508pt" height="1169pt"
 viewBox="0.00 0.00 1508.00 1169.00" xmlns="http://www.w3.org/2000/svg" xmlns:xlink="http://www.w3.org/1999/xlink">
<g id="graph0" class="graph" transform="scale(1 1) rotate(0) translate(36 1132.75)">
<title>wc3_print</title>
<polygon fill="white" stroke="none" points="-36,36 -36,-1132.75 1471.88,-1132.75 1471.88,36 -36,36"/>
<text xml:space="preserve" text-anchor="middle" x="717.94" y="-1079.45" font-family="Helvetica,sans-Serif" font-size="14.00">WC3 — Print System</text>
<text xml:space="preserve" text-anchor="middle" x="717.94" y="-1064.45" font-family="Helvetica,sans-Serif" font-size="14.00">Cmd+P = Primary | Print Button / Cmd+Opt+P = Report Selector</text>
<g id="clust1" class="cluster">
<title>cluster_entry</title>
<polygon fill="none" stroke="#999999" stroke-dasharray="5,2" points="455.88,-975.75 455.88,-1050.75 742.88,-1050.75 742.88,-975.75 455.88,-975.75"/>
<text xml:space="preserve" text-anchor="middle" x="599.38" y="-1033.45" font-family="Helvetica,sans-Serif" font-size="14.00">Entry Points</text>
</g>
<g id="clust2" class="cluster">
<title>cluster_selector</title>
<polygon fill="#fef9e7" stroke="#f4d03f" points="355.88,-703.5 355.88,-939.75 709.88,-939.75 709.88,-703.5 355.88,-703.5"/>
<text xml:space="preserve" text-anchor="middle" x="532.88" y="-922.45" font-family="Helvetica,sans-Serif" font-size="14.00">Report Selector Dialog</text>
</g>
<g id="clust3" class="cluster">
<title>cluster_router</title>
<polygon fill="#ebf5fb" stroke="#3498db" points="730.88,-458.5 730.88,-676.5 1427.88,-676.5 1427.88,-458.5 730.88,-458.5"/>
<text xml:space="preserve" text-anchor="middle" x="1079.38" y="-659.2" font-family="Helvetica,sans-Serif" font-size="14.00">Output Type Router</text>
</g>
<g id="clust4" class="cluster">
<title>cluster_pdfme</title>
<polygon fill="#e8f8f5" stroke="#1abc9c" points="1162.88,-102 1162.88,-427.75 1352.88,-427.75 1352.88,-102 1162.88,-102"/>
<text xml:space="preserve" text-anchor="middle" x="1257.88" y="-410.45" font-family="Helvetica,sans-Serif" font-size="14.00">pdfme Client&#45;Side Rendering</text>
</g>
<g id="clust5" class="cluster">
<title>cluster_dest</title>
<polygon fill="#fdedec" stroke="#e74c3c" points="778.88,-8 778.88,-83 1259.88,-83 1259.88,-8 778.88,-8"/>
<text xml:space="preserve" text-anchor="middle" x="1019.38" y="-65.7" font-family="Helvetica,sans-Serif" font-size="14.00">Destination</text>
</g>
<g id="clust6" class="cluster">
<title>cluster_editor</title>
<polygon fill="#f4ecf7" stroke="#8e44ad" points="81.88,-349.88 81.88,-676.5 629.88,-676.5 629.88,-349.88 81.88,-349.88"/>
<text xml:space="preserve" text-anchor="middle" x="355.88" y="-659.2" font-family="Helvetica,sans-Serif" font-size="14.00">Report Editor</text>
</g>
<!-- cmd_p -->
<g id="node1" class="node">
<title>cmd_p</title>
<polygon fill="#aed6f1" stroke="black" points="734.38,-1019.75 655.38,-1019.75 655.38,-983.75 734.38,-983.75 734.38,-1019.75"/>
<text xml:space="preserve" text-anchor="middle" x="694.88" y="-1003.5" font-family="Helvetica,sans-Serif" font-size="10.00">Cmd+P</text>
<text xml:space="preserve" text-anchor="middle" x="694.88" y="-992.25" font-family="Helvetica,sans-Serif" font-size="10.00">(Print Primary)</text>
</g>
<!-- router -->
<g id="node8" class="node">
<title>router</title>
<polygon fill="#85c1e9" stroke="black" points="948.88,-645.5 881.88,-615 948.88,-584.5 1015.88,-615 948.88,-645.5"/>
<text xml:space="preserve" text-anchor="middle" x="948.88" y="-616.75" font-family="Helvetica,sans-Serif" font-size="10.00">Route by</text>
<text xml:space="preserve" text-anchor="middle" x="948.88" y="-605.5" font-family="Helvetica,sans-Serif" font-size="10.00">output_type</text>
</g>
<!-- cmd_p&#45;&gt;router -->
<g id="edge1" class="edge">
<title>cmd_p&#45;&gt;router</title>
<path fill="none" stroke="#3498db" d="M706.28,-983.47C745.63,-923.88 876.05,-726.31 927.62,-648.19"/>
<polygon fill="#3498db" stroke="#3498db" points="930.37,-650.38 932.96,-640.1 924.53,-646.52 930.37,-650.38"/>
<text xml:space="preserve" text-anchor="middle" x="862" y="-794.9" font-family="Helvetica,sans-Serif" font-size="8.00">primary report</text>
<text xml:space="preserve" text-anchor="middle" x="862" y="-785.9" font-family="Helvetica,sans-Serif" font-size="8.00">for model</text>
</g>
<!-- print_btn -->
<g id="node2" class="node">
<title>print_btn</title>
<polygon fill="#aed6f1" stroke="black" points="546.25,-1019.75 463.5,-1019.75 463.5,-983.75 546.25,-983.75 546.25,-1019.75"/>
<text xml:space="preserve" text-anchor="middle" x="504.88" y="-1003.5" font-family="Helvetica,sans-Serif" font-size="10.00">Print Button</text>
<text xml:space="preserve" text-anchor="middle" x="504.88" y="-992.25" font-family="Helvetica,sans-Serif" font-size="10.00">or Cmd+Opt+P</text>
</g>
<!-- selector -->
<g id="node4" class="node">
<title>selector</title>
<polygon fill="#f4d03f" stroke="black" points="569.5,-908.75 440.25,-908.75 440.25,-820.5 569.5,-820.5 569.5,-908.75"/>
<text xml:space="preserve" text-anchor="middle" x="504.88" y="-895.25" font-family="Helvetica,sans-Serif" font-size="10.00">Defined Reports</text>
<text xml:space="preserve" text-anchor="middle" x="504.88" y="-884" font-family="Helvetica,sans-Serif" font-size="10.00">for this Model + User</text>
<text xml:space="preserve" text-anchor="middle" x="504.88" y="-860.75" font-family="Helvetica,sans-Serif" font-size="10.00">Columns:</text>
<text xml:space="preserve" text-anchor="middle" x="504.88" y="-849.5" font-family="Helvetica,sans-Serif" font-size="10.00">Type | Name | Description</text>
<text xml:space="preserve" text-anchor="middle" x="504.88" y="-826.25" font-family="Helvetica,sans-Serif" font-size="10.00">Sorted by sort_order</text>
</g>
<!-- print_btn&#45;&gt;selector -->
<g id="edge2" class="edge">
<title>print_btn&#45;&gt;selector</title>
<path fill="none" stroke="black" d="M504.88,-983.36C504.88,-967.39 504.88,-942.83 504.88,-920.28"/>
<polygon fill="black" stroke="black" points="508.38,-920.58 504.88,-910.58 501.38,-920.58 508.38,-920.58"/>
<text xml:space="preserve" text-anchor="middle" x="525.5" y="-953.65" font-family="Helvetica,sans-Serif" font-size="8.00">open dialog</text>
</g>
<!-- db_print -->
<g id="node3" class="node">
<title>db_print</title>
<polygon fill="#aed6f1" stroke="black" points="637.38,-1019.75 564.38,-1019.75 564.38,-983.75 637.38,-983.75 637.38,-1019.75"/>
<text xml:space="preserve" text-anchor="middle" x="600.88" y="-1003.5" font-family="Helvetica,sans-Serif" font-size="10.00">databrowser</text>
<text xml:space="preserve" text-anchor="middle" x="600.88" y="-992.25" font-family="Helvetica,sans-Serif" font-size="10.00">Print Column</text>
</g>
<!-- db_print&#45;&gt;selector -->
<g id="edge3" class="edge">
<title>db_print&#45;&gt;selector</title>
<path fill="none" stroke="black" d="M588.52,-983.36C576.86,-966.95 558.77,-941.48 542.39,-918.43"/>
<polygon fill="black" stroke="black" points="545.26,-916.43 536.61,-910.3 539.55,-920.48 545.26,-916.43"/>
<text xml:space="preserve" text-anchor="middle" x="603.63" y="-958.15" font-family="Helvetica,sans-Serif" font-size="8.00">open dialog</text>
<text xml:space="preserve" text-anchor="middle" x="603.63" y="-949.15" font-family="Helvetica,sans-Serif" font-size="8.00">for selected row</text>
</g>
<!-- dbl_click -->
<g id="node5" class="node">
<title>dbl_click</title>
<polygon fill="#fdfefe" stroke="black" points="634.88,-766.5 567.88,-739 634.88,-711.5 701.88,-739 634.88,-766.5"/>
<text xml:space="preserve" text-anchor="middle" x="634.88" y="-740.2" font-family="Helvetica,sans-Serif" font-size="9.00">Double&#45;click</text>
<text xml:space="preserve" text-anchor="middle" x="634.88" y="-730.45" font-family="Helvetica,sans-Serif" font-size="9.00">or Enter</text>
</g>
<!-- selector&#45;&gt;dbl_click -->
<g id="edge4" class="edge">
<title>selector&#45;&gt;dbl_click</title>
<path fill="none" stroke="black" d="M550.71,-820.04C569.51,-802.16 590.66,-782.05 607.05,-766.46"/>
<polygon fill="black" stroke="black" points="609.22,-769.22 614.06,-759.8 604.4,-764.15 609.22,-769.22"/>
</g>
<!-- setup_btn -->
<g id="node6" class="node">
<title>setup_btn</title>
<polygon fill="#e8daef" stroke="black" points="442,-757 363.75,-757 363.75,-721 442,-721 442,-757"/>
<text xml:space="preserve" text-anchor="middle" x="402.88" y="-740.75" font-family="Helvetica,sans-Serif" font-size="10.00">Report Setup</text>
<text xml:space="preserve" text-anchor="middle" x="402.88" y="-729.5" font-family="Helvetica,sans-Serif" font-size="10.00">(edit authority)</text>
</g>
<!-- selector&#45;&gt;setup_btn -->
<g id="edge5" class="edge">
<title>selector&#45;&gt;setup_btn</title>
<path fill="none" stroke="black" d="M468.91,-820.04C454.05,-802.02 437.32,-781.74 424.41,-766.1"/>
<polygon fill="black" stroke="black" points="427.33,-764.14 418.26,-758.65 421.93,-768.59 427.33,-764.14"/>
</g>
<!-- new_btn -->
<g id="node7" class="node">
<title>new_btn</title>
<polygon fill="#e8daef" stroke="black" points="549.62,-757 460.12,-757 460.12,-721 549.62,-721 549.62,-757"/>
<text xml:space="preserve" text-anchor="middle" x="504.88" y="-740.75" font-family="Helvetica,sans-Serif" font-size="10.00">New Report</text>
<text xml:space="preserve" text-anchor="middle" x="504.88" y="-729.5" font-family="Helvetica,sans-Serif" font-size="10.00">(create authority)</text>
</g>
<!-- selector&#45;&gt;new_btn -->
<g id="edge6" class="edge">
<title>selector&#45;&gt;new_btn</title>
<path fill="none" stroke="black" d="M504.88,-820.04C504.88,-803.04 504.88,-784.01 504.88,-768.78"/>
<polygon fill="black" stroke="black" points="508.38,-769 504.88,-759 501.38,-769 508.38,-769"/>
</g>
<!-- dbl_click&#45;&gt;router -->
<g id="edge7" class="edge">
<title>dbl_click&#45;&gt;router</title>
<path fill="none" stroke="black" d="M668.48,-724.94C725.01,-702.98 839.21,-658.61 903.05,-633.81"/>
<polygon fill="black" stroke="black" points="904.13,-637.14 912.19,-630.25 901.6,-630.61 904.13,-637.14"/>
<text xml:space="preserve" text-anchor="middle" x="790.38" y="-685.9" font-family="Helvetica,sans-Serif" font-size="8.00">selected report</text>
</g>
<!-- editor_router -->
<g id="node25" class="node">
<title>editor_router</title>
<polygon fill="#d2b4de" stroke="black" points="402.88,-645.5 347.12,-615 402.88,-584.5 458.62,-615 402.88,-645.5"/>
<text xml:space="preserve" text-anchor="middle" x="402.88" y="-616.75" font-family="Helvetica,sans-Serif" font-size="10.00">Route by</text>
<text xml:space="preserve" text-anchor="middle" x="402.88" y="-605.5" font-family="Helvetica,sans-Serif" font-size="10.00">category</text>
</g>
<!-- setup_btn&#45;&gt;editor_router -->
<g id="edge8" class="edge">
<title>setup_btn&#45;&gt;editor_router</title>
<path fill="none" stroke="black" d="M402.88,-720.52C402.88,-703.99 402.88,-678.56 402.88,-656.92"/>
<polygon fill="black" stroke="black" points="406.38,-657.21 402.88,-647.21 399.38,-657.21 406.38,-657.21"/>
<text xml:space="preserve" text-anchor="middle" x="430.62" y="-685.9" font-family="Helvetica,sans-Serif" font-size="8.00">open for editing</text>
</g>
<!-- new_btn&#45;&gt;editor_router -->
<g id="edge9" class="edge">
<title>new_btn&#45;&gt;editor_router</title>
<path fill="none" stroke="black" d="M491.86,-720.95C483.68,-710.35 472.83,-696.5 462.88,-684.5 451.83,-671.18 439.26,-656.73 428.49,-644.55"/>
<polygon fill="black" stroke="black" points="431.28,-642.42 422.02,-637.27 426.05,-647.07 431.28,-642.42"/>
<text xml:space="preserve" text-anchor="middle" x="491.3" y="-685.9" font-family="Helvetica,sans-Serif" font-size="8.00">blank report</text>
</g>
<!-- print_out -->
<g id="node9" class="node">
<title>print_out</title>
<polygon fill="#82e0aa" stroke="black" points="1244.12,-509.75 1157.62,-509.75 1157.62,-466.5 1244.12,-466.5 1244.12,-509.75"/>
<text xml:space="preserve" text-anchor="middle" x="1200.88" y="-496.25" font-family="Helvetica,sans-Serif" font-size="10.00">print</text>
<text xml:space="preserve" text-anchor="middle" x="1200.88" y="-485" font-family="Helvetica,sans-Serif" font-size="10.00">(pdfme → PDF</text>
<text xml:space="preserve" text-anchor="middle" x="1200.88" y="-472.25" font-family="Helvetica,sans-Serif" font-size="10.00">or browser print)</text>
</g>
<!-- router&#45;&gt;print_out -->
<g id="edge10" class="edge">
<title>router&#45;&gt;print_out</title>
<path fill="none" stroke="black" d="M983.12,-599.7C1023.45,-582.51 1092.15,-552.12 1148.88,-521.5 1152.1,-519.76 1155.41,-517.9 1158.7,-515.98"/>
<polygon fill="black" stroke="black" points="1160.41,-519.04 1167.21,-510.91 1156.83,-513.02 1160.41,-519.04"/>
</g>
<!-- email_out -->
<g id="node10" class="node">
<title>email_out</title>
<polygon fill="#f5b7b1" stroke="black" points="827.25,-509 738.5,-509 738.5,-467.25 827.25,-467.25 827.25,-509"/>
<text xml:space="preserve" text-anchor="middle" x="782.88" y="-495.5" font-family="Helvetica,sans-Serif" font-size="10.00">email</text>
<text xml:space="preserve" text-anchor="middle" x="782.88" y="-484.25" font-family="Helvetica,sans-Serif" font-size="10.00">(render PDF</text>
<text xml:space="preserve" text-anchor="middle" x="782.88" y="-473" font-family="Helvetica,sans-Serif" font-size="10.00">+ send via Alice)</text>
</g>
<!-- router&#45;&gt;email_out -->
<g id="edge11" class="edge">
<title>router&#45;&gt;email_out</title>
<path fill="none" stroke="black" d="M924.02,-595.3C896.12,-574.31 850.59,-540.06 818.81,-516.15"/>
<polygon fill="black" stroke="black" points="821.13,-513.52 811.04,-510.31 816.92,-519.12 821.13,-513.52"/>
</g>
<!-- export_out -->
<g id="node11" class="node">
<title>export_out</title>
<polygon fill="#d5f5e3" stroke="black" points="1049.25,-509 960.5,-509 960.5,-467.25 1049.25,-467.25 1049.25,-509"/>
<text xml:space="preserve" text-anchor="middle" x="1004.88" y="-495.5" font-family="Helvetica,sans-Serif" font-size="10.00">export</text>
<text xml:space="preserve" text-anchor="middle" x="1004.88" y="-484.25" font-family="Helvetica,sans-Serif" font-size="10.00">(CSV/Tab/JSON</text>
<text xml:space="preserve" text-anchor="middle" x="1004.88" y="-473" font-family="Helvetica,sans-Serif" font-size="10.00">to download)</text>
</g>
<!-- router&#45;&gt;export_out -->
<g id="edge12" class="edge">
<title>router&#45;&gt;export_out</title>
<path fill="none" stroke="black" d="M959.94,-589.33C968.9,-569.35 981.56,-541.12 991.16,-519.71"/>
<polygon fill="black" stroke="black" points="994.35,-521.15 995.25,-510.6 987.96,-518.29 994.35,-521.15"/>
</g>
<!-- label_out -->
<g id="node12" class="node">
<title>label_out</title>
<polygon fill="#fadbd8" stroke="black" points="1331.5,-509 1262.25,-509 1262.25,-467.25 1331.5,-467.25 1331.5,-509"/>
<text xml:space="preserve" text-anchor="middle" x="1296.88" y="-495.5" font-family="Helvetica,sans-Serif" font-size="10.00">label</text>
<text xml:space="preserve" text-anchor="middle" x="1296.88" y="-484.25" font-family="Helvetica,sans-Serif" font-size="10.00">(pdfme label</text>
<text xml:space="preserve" text-anchor="middle" x="1296.88" y="-473" font-family="Helvetica,sans-Serif" font-size="10.00">template)</text>
</g>
<!-- router&#45;&gt;label_out -->
<g id="edge13" class="edge">
<title>router&#45;&gt;label_out</title>
<path fill="none" stroke="black" d="M995,-605.08C1056.21,-592.11 1166.58,-564.78 1252.88,-521.5 1256.37,-519.75 1259.88,-517.72 1263.32,-515.55"/>
<polygon fill="black" stroke="black" points="1265.14,-518.54 1271.45,-510.02 1261.21,-512.75 1265.14,-518.54"/>
</g>
<!-- list_out -->
<g id="node13" class="node">
<title>list_out</title>
<polygon fill="#d6eaf8" stroke="black" points="1140,-509 1067.75,-509 1067.75,-467.25 1140,-467.25 1140,-509"/>
<text xml:space="preserve" text-anchor="middle" x="1103.88" y="-495.5" font-family="Helvetica,sans-Serif" font-size="10.00">list</text>
<text xml:space="preserve" text-anchor="middle" x="1103.88" y="-484.25" font-family="Helvetica,sans-Serif" font-size="10.00">(databrowser</text>
<text xml:space="preserve" text-anchor="middle" x="1103.88" y="-473" font-family="Helvetica,sans-Serif" font-size="10.00">filtered view)</text>
</g>
<!-- router&#45;&gt;list_out -->
<g id="edge14" class="edge">
<title>router&#45;&gt;list_out</title>
<path fill="none" stroke="black" d="M972.42,-595.03C998.43,-574.07 1040.56,-540.13 1070.09,-516.34"/>
<polygon fill="black" stroke="black" points="1072.05,-519.26 1077.65,-510.26 1067.66,-513.8 1072.05,-519.26"/>
</g>
<!-- letter_out -->
<g id="node14" class="node">
<title>letter_out</title>
<polygon fill="#fcf3cf" stroke="black" points="1420.25,-509 1349.5,-509 1349.5,-467.25 1420.25,-467.25 1420.25,-509"/>
<text xml:space="preserve" text-anchor="middle" x="1384.88" y="-495.5" font-family="Helvetica,sans-Serif" font-size="10.00">letter</text>
<text xml:space="preserve" text-anchor="middle" x="1384.88" y="-484.25" font-family="Helvetica,sans-Serif" font-size="10.00">(pdfme letter</text>
<text xml:space="preserve" text-anchor="middle" x="1384.88" y="-473" font-family="Helvetica,sans-Serif" font-size="10.00">template)</text>
</g>
<!-- router&#45;&gt;letter_out -->
<g id="edge15" class="edge">
<title>router&#45;&gt;letter_out</title>
<path fill="none" stroke="black" d="M1003.42,-608.86C1081.59,-599.82 1228.45,-576.51 1340.88,-521.5 1344.39,-519.78 1347.91,-517.77 1351.35,-515.62"/>
<polygon fill="black" stroke="black" points="1353.17,-518.61 1359.49,-510.11 1349.25,-512.82 1353.17,-518.61"/>
</g>
<!-- api_out -->
<g id="node15" class="node">
<title>api_out</title>
<polygon fill="#d5d8dc" stroke="black" points="942.38,-509 845.38,-509 845.38,-467.25 942.38,-467.25 942.38,-509"/>
<text xml:space="preserve" text-anchor="middle" x="893.88" y="-495.5" font-family="Helvetica,sans-Serif" font-size="10.00">api / json</text>
<text xml:space="preserve" text-anchor="middle" x="893.88" y="-484.25" font-family="Helvetica,sans-Serif" font-size="10.00">(POST to endpoint</text>
<text xml:space="preserve" text-anchor="middle" x="893.88" y="-473" font-family="Helvetica,sans-Serif" font-size="10.00">or clipboard)</text>
</g>
<!-- router&#45;&gt;api_out -->
<g id="edge16" class="edge">
<title>router&#45;&gt;api_out</title>
<path fill="none" stroke="black" d="M937.88,-589.03C929.07,-569.03 916.67,-540.89 907.28,-519.57"/>
<polygon fill="black" stroke="black" points="910.52,-518.24 903.29,-510.5 904.12,-521.07 910.52,-518.24"/>
</g>
<!-- usage -->
<g id="node33" class="node">
<title>usage</title>
<polygon fill="#fdfefe" stroke="black" points="714.12,-521.5 639.62,-521.5 639.62,-454.75 720.12,-454.75 720.12,-515.5 714.12,-521.5"/>
<polyline fill="none" stroke="black" points="714.12,-521.5 714.12,-515.5"/>
<polyline fill="none" stroke="black" points="720.12,-515.5 714.12,-515.5"/>
<text xml:space="preserve" text-anchor="middle" x="679.88" y="-508.95" font-family="Helvetica,sans-Serif" font-size="9.00">Usage Tracking</text>
<text xml:space="preserve" text-anchor="middle" x="679.88" y="-489.2" font-family="Helvetica,sans-Serif" font-size="9.00">metadata.flow:</text>
<text xml:space="preserve" text-anchor="middle" x="679.88" y="-479.45" font-family="Helvetica,sans-Serif" font-size="9.00"> &#160;use_count</text>
<text xml:space="preserve" text-anchor="middle" x="679.88" y="-469.7" font-family="Helvetica,sans-Serif" font-size="9.00"> &#160;last_used_utc</text>
<text xml:space="preserve" text-anchor="middle" x="679.88" y="-459.95" font-family="Helvetica,sans-Serif" font-size="9.00"> &#160;used_by[]</text>
</g>
<!-- router&#45;&gt;usage -->
<g id="edge42" class="edge">
<title>router&#45;&gt;usage</title>
<path fill="none" stroke="#999999" stroke-dasharray="5,2" d="M911.05,-601.42C868,-586.43 795.9,-559.26 730.61,-523.4"/>
<polygon fill="#999999" stroke="#999999" points="732.37,-520.37 721.94,-518.55 728.96,-526.48 732.37,-520.37"/>
<text xml:space="preserve" text-anchor="middle" x="826.69" y="-554.4" font-family="Helvetica,sans-Serif" font-size="8.00">track</text>
<text xml:space="preserve" text-anchor="middle" x="826.69" y="-545.4" font-family="Helvetica,sans-Serif" font-size="8.00">usage</text>
</g>
<!-- load_template -->
<g id="node16" class="node">
<title>load_template</title>
<polygon fill="#a3e4d7" stroke="black" points="1284.75,-396.75 1175,-396.75 1175,-355 1284.75,-355 1284.75,-396.75"/>
<text xml:space="preserve" text-anchor="middle" x="1229.88" y="-383.25" font-family="Helvetica,sans-Serif" font-size="10.00">Load pdfme Template</text>
<text xml:space="preserve" text-anchor="middle" x="1229.88" y="-372" font-family="Helvetica,sans-Serif" font-size="10.00">from Report.config</text>
<text xml:space="preserve" text-anchor="middle" x="1229.88" y="-360.75" font-family="Helvetica,sans-Serif" font-size="10.00">.pdfme_template</text>
</g>
<!-- print_out&#45;&gt;load_template -->
<g id="edge17" class="edge">
<title>print_out&#45;&gt;load_template</title>
<path fill="none" stroke="black" d="M1206.4,-466.13C1210.73,-449.68 1216.81,-426.54 1221.7,-407.94"/>
<polygon fill="black" stroke="black" points="1225.02,-409.07 1224.18,-398.51 1218.25,-407.29 1225.02,-409.07"/>
</g>
<!-- email_send -->
<g id="node22" class="node">
<title>email_send</title>
<polygon fill="#f5b7b1" stroke="black" points="840.88,-52 786.88,-52 786.88,-16 840.88,-16 840.88,-52"/>
<text xml:space="preserve" text-anchor="middle" x="813.88" y="-35.75" font-family="Helvetica,sans-Serif" font-size="10.00">Email</text>
<text xml:space="preserve" text-anchor="middle" x="813.88" y="-24.5" font-family="Helvetica,sans-Serif" font-size="10.00">(Alice)</text>
</g>
<!-- email_out&#45;&gt;email_send -->
<g id="edge25" class="edge">
<title>email_out&#45;&gt;email_send</title>
<path fill="none" stroke="black" d="M787.59,-466.93C792.31,-444.92 798.88,-408.59 798.88,-376.88 798.88,-376.88 798.88,-376.88 798.88,-127 798.88,-105.6 802.88,-81.75 806.75,-63.7"/>
<polygon fill="black" stroke="black" points="810.16,-64.5 808.96,-53.97 803.33,-62.95 810.16,-64.5"/>
</g>
<!-- disk -->
<g id="node23" class="node">
<title>disk</title>
<polygon fill="#f5b7b1" stroke="black" points="1016.88,-52 934.88,-52 934.88,-16 1016.88,-16 1016.88,-52"/>
<text xml:space="preserve" text-anchor="middle" x="975.88" y="-35.75" font-family="Helvetica,sans-Serif" font-size="10.00">Save to Disk</text>
<text xml:space="preserve" text-anchor="middle" x="975.88" y="-24.5" font-family="Helvetica,sans-Serif" font-size="10.00">(.csv/.txt/.json)</text>
</g>
<!-- export_out&#45;&gt;disk -->
<g id="edge26" class="edge">
<title>export_out&#45;&gt;disk</title>
<path fill="none" stroke="black" d="M1002.22,-466.85C999.57,-444.76 995.88,-408.37 995.88,-376.88 995.88,-376.88 995.88,-376.88 995.88,-127 995.88,-105.28 990.49,-81.32 985.3,-63.3"/>
<polygon fill="black" stroke="black" points="988.68,-62.39 982.42,-53.84 981.99,-64.43 988.68,-62.39"/>
</g>
<!-- label_out&#45;&gt;load_template -->
<g id="edge18" class="edge">
<title>label_out&#45;&gt;load_template</title>
<path fill="none" stroke="black" d="M1284.59,-466.9C1274.34,-450.04 1259.59,-425.78 1247.99,-406.69"/>
<polygon fill="black" stroke="black" points="1251.06,-404.99 1242.87,-398.26 1245.07,-408.63 1251.06,-404.99"/>
</g>
<!-- preview -->
<g id="node19" class="node">
<title>preview</title>
<polygon fill="#f5b7b1" stroke="black" points="1179.38,-52 1112.38,-52 1112.38,-16 1179.38,-16 1179.38,-52"/>
<text xml:space="preserve" text-anchor="middle" x="1145.88" y="-35.75" font-family="Helvetica,sans-Serif" font-size="10.00">Preview</text>
<text xml:space="preserve" text-anchor="middle" x="1145.88" y="-24.5" font-family="Helvetica,sans-Serif" font-size="10.00">(in&#45;browser)</text>
</g>
<!-- list_out&#45;&gt;preview -->
<g id="edge29" class="edge">
<title>list_out&#45;&gt;preview</title>
<path fill="none" stroke="black" stroke-dasharray="5,2" d="M1104.76,-466.81C1105.64,-444.69 1106.88,-408.28 1106.88,-376.88 1106.88,-376.88 1106.88,-376.88 1106.88,-127 1106.88,-103.8 1117.52,-79.73 1127.69,-62.03"/>
<polygon fill="black" stroke="black" points="1130.55,-64.06 1132.75,-53.69 1124.57,-60.42 1130.55,-64.06"/>
<text xml:space="preserve" text-anchor="middle" x="1129.38" y="-251.9" font-family="Helvetica,sans-Serif" font-size="8.00">databrowser</text>
<text xml:space="preserve" text-anchor="middle" x="1129.38" y="-242.9" font-family="Helvetica,sans-Serif" font-size="8.00">filtered</text>
</g>
<!-- letter_out&#45;&gt;load_template -->
<g id="edge19" class="edge">
<title>letter_out&#45;&gt;load_template</title>
<path fill="none" stroke="black" d="M1357.48,-466.82C1352,-462.8 1346.27,-458.62 1340.88,-454.75 1317,-437.6 1290.01,-418.65 1268.62,-403.74"/>
<polygon fill="black" stroke="black" points="1270.66,-400.9 1260.46,-398.06 1266.66,-406.64 1270.66,-400.9"/>
</g>
<!-- api_out&#45;&gt;disk -->
<g id="edge28" class="edge">
<title>api_out&#45;&gt;disk</title>
<path fill="none" stroke="black" d="M907.32,-466.95C920.26,-445.54 937.88,-410.26 937.88,-376.88 937.88,-376.88 937.88,-376.88 937.88,-127 937.88,-103.89 948.25,-79.81 958.15,-62.09"/>
<polygon fill="black" stroke="black" points="961.01,-64.14 963.08,-53.75 954.98,-60.58 961.01,-64.14"/>
</g>
<!-- clipboard -->
<g id="node24" class="node">
<title>clipboard</title>
<polygon fill="#f5b7b1" stroke="black" points="916.5,-52 859.25,-52 859.25,-16 916.5,-16 916.5,-52"/>
<text xml:space="preserve" text-anchor="middle" x="887.88" y="-30.12" font-family="Helvetica,sans-Serif" font-size="10.00">Clipboard</text>
</g>
<!-- api_out&#45;&gt;clipboard -->
<g id="edge27" class="edge">
<title>api_out&#45;&gt;clipboard</title>
<path fill="none" stroke="black" d="M892.99,-466.81C892.11,-444.69 890.88,-408.28 890.88,-376.88 890.88,-376.88 890.88,-376.88 890.88,-127 890.88,-105.73 890.06,-81.72 889.29,-63.56"/>
<polygon fill="black" stroke="black" points="892.79,-63.63 888.84,-53.8 885.8,-63.95 892.79,-63.63"/>
</g>
<!-- populate -->
<g id="node17" class="node">
<title>populate</title>
<polygon fill="#a3e4d7" stroke="black" points="1274.88,-271.38 1180.88,-271.38 1180.88,-229.62 1274.88,-229.62 1274.88,-271.38"/>
<text xml:space="preserve" text-anchor="middle" x="1227.88" y="-257.88" font-family="Helvetica,sans-Serif" font-size="10.00">Populate Fields</text>
<text xml:space="preserve" text-anchor="middle" x="1227.88" y="-246.62" font-family="Helvetica,sans-Serif" font-size="10.00">from Record Data</text>
<text xml:space="preserve" text-anchor="middle" x="1227.88" y="-235.38" font-family="Helvetica,sans-Serif" font-size="10.00">(fieldRegistry.ts)</text>
</g>
<!-- load_template&#45;&gt;populate -->
<g id="edge20" class="edge">
<title>load_template&#45;&gt;populate</title>
<path fill="none" stroke="black" d="M1229.54,-354.5C1229.23,-335.01 1228.75,-305.33 1228.38,-282.83"/>
<polygon fill="black" stroke="black" points="1231.89,-282.95 1228.22,-273.01 1224.89,-283.06 1231.89,-282.95"/>
</g>
<!-- generate -->
<g id="node18" class="node">
<title>generate</title>
<polygon fill="#76d7c4" stroke="black" points="1270.38,-146 1173.38,-146 1173.38,-110 1270.38,-110 1270.38,-146"/>
<text xml:space="preserve" text-anchor="middle" x="1221.88" y="-129.75" font-family="Helvetica,sans-Serif" font-size="10.00">@pdfme/generator</text>
<text xml:space="preserve" text-anchor="middle" x="1221.88" y="-118.5" font-family="Helvetica,sans-Serif" font-size="10.00">generate()</text>
</g>
<!-- populate&#45;&gt;generate -->
<g id="edge21" class="edge">
<title>populate&#45;&gt;generate</title>
<path fill="none" stroke="black" d="M1226.87,-229.33C1225.9,-209.77 1224.41,-179.9 1223.31,-157.83"/>
<polygon fill="black" stroke="black" points="1226.81,-157.82 1222.82,-148 1219.82,-158.16 1226.81,-157.82"/>
</g>
<!-- generate&#45;&gt;preview -->
<g id="edge22" class="edge">
<title>generate&#45;&gt;preview</title>
<path fill="none" stroke="black" d="M1207.58,-109.7C1196.22,-95.95 1180.16,-76.5 1167.27,-60.9"/>
<polygon fill="black" stroke="black" points="1170.14,-58.87 1161.07,-53.39 1164.74,-63.33 1170.14,-58.87"/>
</g>
<!-- download -->
<g id="node20" class="node">
<title>download</title>
<polygon fill="#f5b7b1" stroke="black" points="1094.62,-52 1035.12,-52 1035.12,-16 1094.62,-16 1094.62,-52"/>
<text xml:space="preserve" text-anchor="middle" x="1064.88" y="-35.75" font-family="Helvetica,sans-Serif" font-size="10.00">Download</text>
<text xml:space="preserve" text-anchor="middle" x="1064.88" y="-24.5" font-family="Helvetica,sans-Serif" font-size="10.00">(.pdf file)</text>
</g>
<!-- generate&#45;&gt;download -->
<g id="edge23" class="edge">
<title>generate&#45;&gt;download</title>
<path fill="none" stroke="black" d="M1173.09,-115.19C1150.64,-108.21 1124.48,-97.79 1103.88,-83 1095.69,-77.12 1088.27,-69.1 1082.14,-61.3"/>
<polygon fill="black" stroke="black" points="1084.99,-59.27 1076.25,-53.28 1079.35,-63.41 1084.99,-59.27"/>
</g>
<!-- printer -->
<g id="node21" class="node">
<title>printer</title>
<polygon fill="#f5b7b1" stroke="black" points="1251.88,-52 1197.88,-52 1197.88,-16 1251.88,-16 1251.88,-52"/>
<text xml:space="preserve" text-anchor="middle" x="1224.88" y="-35.75" font-family="Helvetica,sans-Serif" font-size="10.00">Send to</text>
<text xml:space="preserve" text-anchor="middle" x="1224.88" y="-24.5" font-family="Helvetica,sans-Serif" font-size="10.00">Printer</text>
</g>
<!-- generate&#45;&gt;printer -->
<g id="edge24" class="edge">
<title>generate&#45;&gt;printer</title>
<path fill="none" stroke="black" d="M1222.44,-109.7C1222.86,-96.72 1223.45,-78.66 1223.94,-63.56"/>
<polygon fill="black" stroke="black" points="1227.44,-63.85 1224.26,-53.74 1220.44,-63.62 1227.44,-63.85"/>
</g>
<!-- pdf_designer -->
<g id="node26" class="node">
<title>pdf_designer</title>
<polygon fill="#d7bde2" stroke="black" points="285.88,-506.12 191.88,-506.12 191.88,-470.12 285.88,-470.12 285.88,-506.12"/>
<text xml:space="preserve" text-anchor="middle" x="238.88" y="-489.88" font-family="Helvetica,sans-Serif" font-size="10.00">pdfme Designer</text>
<text xml:space="preserve" text-anchor="middle" x="238.88" y="-478.62" font-family="Helvetica,sans-Serif" font-size="10.00">(visual drag+drop)</text>
</g>
<!-- editor_router&#45;&gt;pdf_designer -->
<g id="edge30" class="edge">
<title>editor_router&#45;&gt;pdf_designer</title>
<path fill="none" stroke="black" d="M377.36,-597.94C363.57,-589.02 346.39,-577.53 331.62,-566.5 309.1,-549.67 284.73,-529.25 266.63,-513.61"/>
<polygon fill="black" stroke="black" points="269.27,-511.27 259.42,-507.35 264.67,-516.55 269.27,-511.27"/>
<text xml:space="preserve" text-anchor="middle" x="349.25" y="-558.9" font-family="Helvetica,sans-Serif" font-size="8.00">report</text>
<text xml:space="preserve" text-anchor="middle" x="349.25" y="-549.9" font-family="Helvetica,sans-Serif" font-size="8.00">statement</text>
<text xml:space="preserve" text-anchor="middle" x="349.25" y="-540.9" font-family="Helvetica,sans-Serif" font-size="8.00">label</text>
</g>
<!-- export_editor -->
<g id="node27" class="node">
<title>export_editor</title>
<polygon fill="#d7bde2" stroke="black" points="391.5,-509 304.25,-509 304.25,-467.25 391.5,-467.25 391.5,-509"/>
<text xml:space="preserve" text-anchor="middle" x="347.88" y="-495.5" font-family="Helvetica,sans-Serif" font-size="10.00">Export Config</text>
<text xml:space="preserve" text-anchor="middle" x="347.88" y="-484.25" font-family="Helvetica,sans-Serif" font-size="10.00">(fields, delimiter,</text>
<text xml:space="preserve" text-anchor="middle" x="347.88" y="-473" font-family="Helvetica,sans-Serif" font-size="10.00">line ending)</text>
</g>
<!-- editor_router&#45;&gt;export_editor -->
<g id="edge31" class="edge">
<title>editor_router&#45;&gt;export_editor</title>
<path fill="none" stroke="black" d="M392.27,-589.92C383.46,-569.91 370.87,-541.33 361.34,-519.7"/>
<polygon fill="black" stroke="black" points="364.66,-518.54 357.42,-510.8 358.25,-521.36 364.66,-518.54"/>
<text xml:space="preserve" text-anchor="middle" x="393.17" y="-549.9" font-family="Helvetica,sans-Serif" font-size="8.00">export</text>
</g>
<!-- list_editor -->
<g id="node28" class="node">
<title>list_editor</title>
<polygon fill="#d7bde2" stroke="black" points="510.62,-509 409.12,-509 409.12,-467.25 510.62,-467.25 510.62,-509"/>
<text xml:space="preserve" text-anchor="middle" x="459.88" y="-495.5" font-family="Helvetica,sans-Serif" font-size="10.00">List Config</text>
<text xml:space="preserve" text-anchor="middle" x="459.88" y="-484.25" font-family="Helvetica,sans-Serif" font-size="10.00">(databrowser layout</text>
<text xml:space="preserve" text-anchor="middle" x="459.88" y="-473" font-family="Helvetica,sans-Serif" font-size="10.00">columns, filters)</text>
</g>
<!-- editor_router&#45;&gt;list_editor -->
<g id="edge32" class="edge">
<title>editor_router&#45;&gt;list_editor</title>
<path fill="none" stroke="black" d="M413.73,-590.22C422.9,-570.12 436.1,-541.21 446.03,-519.45"/>
<polygon fill="black" stroke="black" points="449.15,-521.04 450.12,-510.49 442.79,-518.13 449.15,-521.04"/>
<text xml:space="preserve" text-anchor="middle" x="452.98" y="-554.4" font-family="Helvetica,sans-Serif" font-size="8.00">list</text>
<text xml:space="preserve" text-anchor="middle" x="452.98" y="-545.4" font-family="Helvetica,sans-Serif" font-size="8.00">summary</text>
</g>
<!-- letter_editor -->
<g id="node29" class="node">
<title>letter_editor</title>
<polygon fill="#d7bde2" stroke="black" points="621.5,-509 528.25,-509 528.25,-467.25 621.5,-467.25 621.5,-509"/>
<text xml:space="preserve" text-anchor="middle" x="574.88" y="-495.5" font-family="Helvetica,sans-Serif" font-size="10.00">Letter Editor</text>
<text xml:space="preserve" text-anchor="middle" x="574.88" y="-484.25" font-family="Helvetica,sans-Serif" font-size="10.00">(rich text +</text>
<text xml:space="preserve" text-anchor="middle" x="574.88" y="-473" font-family="Helvetica,sans-Serif" font-size="10.00">mail merge fields)</text>
</g>
<!-- editor_router&#45;&gt;letter_editor -->
<g id="edge33" class="edge">
<title>editor_router&#45;&gt;letter_editor</title>
<path fill="none" stroke="black" d="M427.78,-597.9C441.52,-588.87 458.81,-577.3 473.88,-566.5 496.4,-550.36 521.11,-531.45 540.45,-516.37"/>
<polygon fill="black" stroke="black" points="542.57,-519.16 548.29,-510.24 538.25,-513.64 542.57,-519.16"/>
<text xml:space="preserve" text-anchor="middle" x="516.65" y="-549.9" font-family="Helvetica,sans-Serif" font-size="8.00">letter</text>
</g>
<!-- email_editor -->
<g id="node30" class="node">
<title>email_editor</title>
<polygon fill="#d7bde2" stroke="black" points="173.62,-509 90.12,-509 90.12,-467.25 173.62,-467.25 173.62,-509"/>
<text xml:space="preserve" text-anchor="middle" x="131.88" y="-495.5" font-family="Helvetica,sans-Serif" font-size="10.00">Email Template</text>
<text xml:space="preserve" text-anchor="middle" x="131.88" y="-484.25" font-family="Helvetica,sans-Serif" font-size="10.00">(subject, body,</text>
<text xml:space="preserve" text-anchor="middle" x="131.88" y="-473" font-family="Helvetica,sans-Serif" font-size="10.00">merge fields)</text>
</g>
<!-- editor_router&#45;&gt;email_editor -->
<g id="edge34" class="edge">
<title>editor_router&#45;&gt;email_editor</title>
<path fill="none" stroke="black" d="M369.17,-602.48C343.2,-593.37 306.55,-579.97 275.12,-566.5 233.2,-548.53 222.69,-543.76 182.88,-521.5 179.32,-519.52 175.68,-517.39 172.05,-515.21"/>
<polygon fill="black" stroke="black" points="174.2,-512.42 163.84,-510.17 170.53,-518.39 174.2,-512.42"/>
<text xml:space="preserve" text-anchor="middle" x="284.5" y="-549.9" font-family="Helvetica,sans-Serif" font-size="8.00">email</text>
</g>
<!-- save_report -->
<g id="node31" class="node">
<title>save_report</title>
<polygon fill="#82e0aa" stroke="black" points="320.12,-393.88 245.62,-393.88 245.62,-357.88 320.12,-357.88 320.12,-393.88"/>
<text xml:space="preserve" text-anchor="middle" x="282.88" y="-377.62" font-family="Helvetica,sans-Serif" font-size="10.00">Save to</text>
<text xml:space="preserve" text-anchor="middle" x="282.88" y="-366.38" font-family="Helvetica,sans-Serif" font-size="10.00">Report Model</text>
</g>
<!-- pdf_designer&#45;&gt;save_report -->
<g id="edge35" class="edge">
<title>pdf_designer&#45;&gt;save_report</title>
<path fill="none" stroke="black" d="M245.75,-469.9C252.68,-452.52 263.5,-425.42 271.68,-404.94"/>
<polygon fill="black" stroke="black" points="274.89,-406.34 275.34,-395.75 268.38,-403.74 274.89,-406.34"/>
</g>
<!-- export_editor&#45;&gt;save_report -->
<g id="edge36" class="edge">
<title>export_editor&#45;&gt;save_report</title>
<path fill="none" stroke="black" d="M335.95,-466.9C325.51,-449.2 310.26,-423.33 298.79,-403.86"/>
<polygon fill="black" stroke="black" points="301.88,-402.21 293.78,-395.38 295.85,-405.77 301.88,-402.21"/>
</g>
<!-- list_editor&#45;&gt;save_report -->
<g id="edge37" class="edge">
<title>list_editor&#45;&gt;save_report</title>
<path fill="none" stroke="black" d="M427.41,-466.9C397.11,-448.03 351.93,-419.89 320.16,-400.1"/>
<polygon fill="black" stroke="black" points="322.39,-397.36 312.05,-395.05 318.69,-403.31 322.39,-397.36"/>
</g>
<!-- letter_editor&#45;&gt;save_report -->
<g id="edge38" class="edge">
<title>letter_editor&#45;&gt;save_report</title>
<path fill="none" stroke="black" d="M542.92,-466.76C535.51,-462.48 527.55,-458.22 519.88,-454.75 456.72,-426.19 379.91,-402.9 331.2,-389.46"/>
<polygon fill="black" stroke="black" points="332.37,-386.15 321.8,-386.9 330.53,-392.91 332.37,-386.15"/>
</g>
<!-- email_editor&#45;&gt;save_report -->
<g id="edge39" class="edge">
<title>email_editor&#45;&gt;save_report</title>
<path fill="none" stroke="black" d="M159.57,-466.9C185.16,-448.22 223.2,-420.45 250.25,-400.7"/>
<polygon fill="black" stroke="black" points="252.09,-403.69 258.1,-394.96 247.96,-398.03 252.09,-403.69"/>
</g>
<!-- report_model -->
<g id="node32" class="node">
<title>report_model</title>
<polygon fill="#fdfefe" stroke="black" points="91.75,-318 0,-318 0,-183 97.75,-183 97.75,-312 91.75,-318"/>
<polyline fill="none" stroke="black" points="91.75,-318 91.75,-312"/>
<polyline fill="none" stroke="black" points="97.75,-312 91.75,-312"/>
<text xml:space="preserve" text-anchor="middle" x="48.88" y="-305.45" font-family="Helvetica,sans-Serif" font-size="9.00">Report Model</text>
<text xml:space="preserve" text-anchor="middle" x="48.88" y="-285.7" font-family="Helvetica,sans-Serif" font-size="9.00">name</text>
<text xml:space="preserve" text-anchor="middle" x="48.88" y="-275.95" font-family="Helvetica,sans-Serif" font-size="9.00">model_name</text>
<text xml:space="preserve" text-anchor="middle" x="48.88" y="-266.2" font-family="Helvetica,sans-Serif" font-size="9.00">output_type</text>
<text xml:space="preserve" text-anchor="middle" x="48.88" y="-256.45" font-family="Helvetica,sans-Serif" font-size="9.00">category</text>
<text xml:space="preserve" text-anchor="middle" x="48.88" y="-246.7" font-family="Helvetica,sans-Serif" font-size="9.00">role_required</text>
<text xml:space="preserve" text-anchor="middle" x="48.88" y="-236.95" font-family="Helvetica,sans-Serif" font-size="9.00">sort_order</text>
<text xml:space="preserve" text-anchor="middle" x="48.88" y="-227.2" font-family="Helvetica,sans-Serif" font-size="9.00">config {}</text>
<text xml:space="preserve" text-anchor="middle" x="48.88" y="-217.45" font-family="Helvetica,sans-Serif" font-size="9.00"> &#160;└ pdfme_template</text>
<text xml:space="preserve" text-anchor="middle" x="48.88" y="-207.7" font-family="Helvetica,sans-Serif" font-size="9.00"> &#160;└ fields</text>
<text xml:space="preserve" text-anchor="middle" x="48.88" y="-197.95" font-family="Helvetica,sans-Serif" font-size="9.00"> &#160;└ delimiter</text>
<text xml:space="preserve" text-anchor="middle" x="48.88" y="-188.2" font-family="Helvetica,sans-Serif" font-size="9.00"> &#160;└ endpoint_url</text>
</g>
<!-- save_report&#45;&gt;report_model -->
<g id="edge40" class="edge">
<title>save_report&#45;&gt;report_model</title>
<path fill="none" stroke="black" d="M249.84,-357.46C213.07,-338.07 152.9,-306.34 107.96,-282.65"/>
<polygon fill="black" stroke="black" points="109.86,-279.7 99.39,-278.13 106.6,-285.89 109.86,-279.7"/>
</g>
<!-- report_model&#45;&gt;selector -->
<g id="edge41" class="edge">
<title>report_model&#45;&gt;selector</title>
<path fill="none" stroke="#999999" stroke-dasharray="5,2" d="M32.54,-318.35C29.3,-336.57 26.88,-356.38 26.88,-374.88 26.88,-740 26.88,-740 26.88,-740 26.88,-821.94 293.45,-850.44 428.45,-859.62"/>
<polygon fill="#999999" stroke="#999999" points="428.19,-863.11 438.4,-860.28 428.65,-856.13 428.19,-863.11"/>
<text xml:space="preserve" text-anchor="middle" x="50.12" y="-558.9" font-family="Helvetica,sans-Serif" font-size="8.00">filtered by</text>
<text xml:space="preserve" text-anchor="middle" x="50.12" y="-549.9" font-family="Helvetica,sans-Serif" font-size="8.00">model_name</text>
<text xml:space="preserve" text-anchor="middle" x="50.12" y="-540.9" font-family="Helvetica,sans-Serif" font-size="8.00">+ user role</text>
</g>
</g>
</svg>
